<svg width="37" height="37" viewBox="0 0 37 37" fill="none" xmlns="http://www.w3.org/2000/svg">
<path d="M18.5 37C28.7173 37 37 28.7173 37 18.5C37 8.28273 28.7173 0 18.5 0C8.28273 0 0 8.28273 0 18.5C0 28.7173 8.28273 37 18.5 37Z" fill="#E7ECED"/>
<path d="M18.5 2.55172C27.2939 2.55172 34.4483 9.70612 34.4483 18.5C34.4483 27.2939 27.2939 34.4483 18.5 34.4483C9.70612 34.4483 2.55172 27.2939 2.55172 18.5C2.55172 9.70612 9.70612 2.55172 18.5 2.55172ZM18.5 0C8.2829 0 0 8.2829 0 18.5C0 28.7171 8.2829 37 18.5 37C28.7171 37 37 28.7171 37 18.5C37 8.2829 28.7171 0 18.5 0Z" fill="#2E3346"/>
<path d="M18.5 3.75043C18.1479 3.75043 17.8621 4.03558 17.8621 4.38836V5.02629C17.8621 5.37907 18.1479 5.66422 18.5 5.66422C18.8521 5.66422 19.1379 5.37907 19.1379 5.02629V4.38836C19.1379 4.03558 18.8521 3.75043 18.5 3.75043Z" fill="#394264"/>
<path d="M18.5 31.1815C18.1479 31.1815 17.8621 31.4666 17.8621 31.8194V32.4573C17.8621 32.8101 18.1479 33.0953 18.5 33.0953C18.8521 33.0953 19.1379 32.8101 19.1379 32.4573V31.8194C19.1379 31.4666 18.8521 31.1815 18.5 31.1815Z" fill="#394264"/>
<path d="M32.5345 17.7849H31.8966C31.5444 17.7849 31.2586 18.0701 31.2586 18.4228C31.2586 18.7756 31.5444 19.0608 31.8966 19.0608H32.5345C32.8866 19.0608 33.1724 18.7756 33.1724 18.4228C33.1724 18.0701 32.8866 17.7849 32.5345 17.7849Z" fill="#394264"/>
<path d="M5.10345 17.7849H4.46552C4.11338 17.7849 3.82759 18.0701 3.82759 18.4228C3.82759 18.7756 4.11338 19.0608 4.46552 19.0608H5.10345C5.45559 19.0608 5.74138 18.7756 5.74138 18.4228C5.74138 18.0701 5.45559 17.7849 5.10345 17.7849Z" fill="#394264"/>
<path d="M27.9726 8.04755L27.5216 8.49856C27.2722 8.748 27.2722 9.15117 27.5216 9.4006C27.646 9.525 27.8093 9.58751 27.9726 9.58751C28.1359 9.58751 28.2992 9.525 28.4236 9.4006L28.8747 8.94958C29.1241 8.70015 29.1241 8.29698 28.8747 8.04755C28.6252 7.79812 28.2221 7.79812 27.9726 8.04755Z" fill="#394264"/>
<path d="M8.57634 27.4444L8.12532 27.8954C7.87589 28.1449 7.87589 28.548 8.12532 28.7975C8.24972 28.9218 8.41303 28.9844 8.57634 28.9844C8.73965 28.9844 8.90296 28.9218 9.02736 28.7975L9.47837 28.3464C9.7278 28.097 9.7278 27.6938 9.47837 27.4444C9.22894 27.195 8.82513 27.1956 8.57634 27.4444Z" fill="#394264"/>
<path d="M28.4236 27.4445C28.1742 27.195 27.771 27.195 27.5216 27.4445C27.2722 27.6939 27.2722 28.0971 27.5216 28.3465L27.9726 28.7975C28.097 28.9219 28.2603 28.9844 28.4236 28.9844C28.587 28.9844 28.7503 28.9219 28.8747 28.7975C29.1241 28.5481 29.1241 28.1449 28.8747 27.8955L28.4236 27.4445Z" fill="#394264"/>
<path d="M9.02736 8.04755C8.77792 7.79812 8.37475 7.79812 8.12532 8.04755C7.87589 8.29698 7.87589 8.70015 8.12532 8.94958L8.57634 9.4006C8.70073 9.525 8.86404 9.58751 9.02736 9.58751C9.19067 9.58751 9.35398 9.525 9.47837 9.4006C9.7278 9.15117 9.7278 8.748 9.47837 8.49856L9.02736 8.04755Z" fill="#394264"/>
<path d="M16.5862 18.4228H11.4828" stroke="#EF4848" stroke-width="2" stroke-miterlimit="10" stroke-linecap="round" stroke-linejoin="round"/>
<path d="M18.5 16.5091V9.49182" stroke="#2B3042" stroke-width="2" stroke-miterlimit="10" stroke-linecap="round" stroke-linejoin="round"/>
<path d="M18.5 20.3366C19.5569 20.3366 20.4138 19.4798 20.4138 18.4228C20.4138 17.3659 19.5569 16.509 18.5 16.509C17.443 16.509 16.5862 17.3659 16.5862 18.4228C16.5862 19.4798 17.443 20.3366 18.5 20.3366Z" stroke="#2B3042" stroke-width="2" stroke-miterlimit="10" stroke-linecap="round" stroke-linejoin="round"/>
</svg>
