<svg width="67" height="42" viewBox="0 0 67 42" fill="none" xmlns="http://www.w3.org/2000/svg">
<path d="M26.3116 41.9304C30.7347 42.0959 34.8652 41.8638 38.9856 41.7084C46.4798 41.428 53.9801 40.978 61.3048 39.1377C62.2149 38.9097 63.1451 38.6857 63.9885 38.2943C66.7005 37.0311 66.7066 35.4673 65.8934 33.1912C64.7472 29.9869 62.2411 28.5905 59.0267 28.076C55.6529 27.5332 52.2851 26.9299 48.9476 26.1994C47.9609 25.9835 46.8551 25.6344 46.4294 24.3733C46.0702 23.3099 45.2025 23.0556 44.2945 23.6327C43.9414 23.8587 43.8022 23.8829 43.675 23.4632C43.3905 22.531 42.7206 22.0164 41.7843 21.8712C41.3182 21.7985 41.1326 21.4958 40.8985 21.1508C40.4021 20.4244 39.7383 19.9179 38.7919 20.0793C38.3984 20.1459 38.2632 19.9885 38.1139 19.6758C37.7204 18.8585 37.0949 18.348 36.1425 18.3722C35.7369 18.3823 35.5674 18.1725 35.404 17.8315C34.9318 16.8447 34.2276 16.195 33.0229 16.419C32.924 16.4371 32.7808 16.4936 32.7324 16.4492C32.2279 15.9932 32.1028 15.2527 31.3844 14.9117C30.5793 14.5283 30.8719 13.82 31.1201 13.1642C31.3522 12.5488 31.4268 11.9656 30.7932 11.445C30.2282 10.9809 30.3876 10.2041 30.2726 9.56642C29.8065 6.99369 29.4211 4.40481 28.505 1.93499C27.8795 0.244048 27.0179 -0.254356 25.2563 0.114907C23.6683 0.447849 22.28 1.14198 21.1682 2.34259C20.7807 2.76028 20.3792 3.16788 20.012 3.60374C18.319 5.60744 15.9642 6.14015 13.5448 6.45291C11.1517 6.76164 8.74237 6.91903 6.32299 6.88271C5.09413 6.86455 4.48878 7.37304 4.22041 8.61199C2.88865 14.7361 1.6618 20.8804 0.786064 27.0893C0.469261 29.3412 0.164566 31.5809 0.38855 33.8752C0.560066 35.6489 -0.0291367 37.3963 0.00112915 39.1801C0.0253448 40.6269 0.323982 40.9356 1.76471 41.21C3.55856 41.549 5.37663 41.3654 7.18056 41.5087C10.2194 41.7488 13.2825 41.7569 16.3334 41.7569C19.7617 41.7528 23.1779 42.1584 26.3116 41.9304ZM24.3483 39.1458C22.7683 39.1458 21.1883 39.172 19.6084 39.1418C13.7264 39.0267 7.84645 38.8815 1.96447 38.7806C1.33693 38.7705 1.13313 38.6131 1.23402 37.9835C1.35711 37.2208 1.46405 36.448 1.46607 35.6792C1.46809 34.6359 1.93219 34.3999 2.929 34.4099C10.4273 34.4886 17.8993 35.0496 25.3693 35.6287C30.9002 36.0565 36.4391 36.3733 41.9861 36.2482C46.5545 36.1453 51.1047 35.6328 55.6367 35.0516C58.3628 34.7025 61.101 34.3756 63.7343 33.512C64.1338 33.3809 64.5798 32.8582 64.8905 33.7299C65.1811 34.5472 64.7573 34.7267 64.152 34.9043C62.6729 35.3382 61.208 35.8265 59.7188 36.226C54.8579 37.5295 50.0211 38.8512 44.92 39.0005C38.0614 39.1983 31.2069 39.1942 24.3483 39.1458ZM14.9734 26.9924C16.5716 27.5877 18.0607 28.1728 19.5721 28.6975C21.9854 29.5349 24.427 30.2895 27.0199 30.2573C29.0276 30.233 30.2746 29.3169 30.8195 27.5594C31.556 25.1804 29.0135 21.3284 26.5275 21.06C26.0332 21.0055 25.7426 21.2254 25.7365 21.7239C25.7325 22.0225 25.8112 22.3231 25.8495 22.6218C26.1542 25.0714 25.3108 25.8584 22.8712 25.3983C22.7401 25.3741 22.6129 25.3216 22.4838 25.2914C20.133 24.7304 17.8226 24.0322 15.5485 23.2231C13.4479 22.4765 11.3575 21.7057 9.25692 20.727C9.67662 20.4647 9.98938 20.614 10.2941 20.6806C14.927 21.7017 19.4308 21.3727 23.7692 19.3711C24.0537 19.2399 24.2817 19.1269 24.5864 19.3791C25.2886 19.9623 26.1805 20.0289 27.036 20.1964C29.6794 20.7109 32.0423 21.7582 33.7211 23.9556C34.508 24.9867 35.4524 25.7434 36.7014 26.0481C37.3794 26.2135 37.3249 26.5101 37.1453 27.0429C36.2676 29.6257 35.0589 32.0511 33.713 34.416C33.4608 34.8579 33.1743 35.0072 32.6678 34.9689C27.9097 34.6178 23.1497 34.2748 18.3896 33.9701C17.8044 33.9317 17.5966 33.6795 17.411 33.1912C16.6301 31.1572 15.8189 29.1374 14.9734 26.9924ZM14.0957 19.9845C11.8377 19.9764 5.84073 18.6245 4.07916 17.7729C3.85316 17.664 3.61909 17.5752 3.66954 17.2866C3.82492 16.4311 3.89958 15.5372 4.21436 14.7422C4.41412 14.2397 5.17484 14.4032 5.66114 14.2034C6.22008 13.9754 6.80929 13.8261 7.36621 13.592C12.778 11.3118 18.1798 9.01152 23.5936 6.73944C25.4056 5.98074 25.4197 6.01302 25.9504 7.91987C26.3439 9.33235 26.3439 9.33639 24.8669 9.44334C24.4209 9.47562 24.0678 9.61283 24.0052 10.1072C23.9386 10.6238 24.1969 10.9466 24.6873 11.0657C25.0121 11.1444 25.3471 11.1928 25.68 11.217C26.5659 11.2836 26.4609 11.671 26.0554 12.232C25.4863 13.0169 24.7438 13.5698 23.8882 13.9875C21.031 15.3798 18.4683 17.218 16.0489 19.254C15.4093 19.7968 14.7858 20.1116 14.0957 19.9845ZM5.0901 33.2658C5.0901 33.2759 5.08808 33.286 5.08808 33.2961C4.14777 33.2961 3.20544 33.2679 2.26715 33.3062C1.69408 33.3304 1.46405 33.0863 1.46204 32.5556C1.46001 32.2206 1.44993 31.8836 1.47617 31.5487C1.69408 28.7035 2.12994 25.8887 2.58194 23.0718C2.68484 22.424 2.89671 22.2909 3.50005 22.4967C6.48442 23.5157 9.47484 24.5125 12.3482 25.8281C12.9617 26.1086 13.3834 26.5263 13.682 27.1256C14.5961 28.9618 15.2761 30.8949 16.0752 32.7775C16.4364 33.629 16.1942 33.7925 15.3487 33.7461C11.9305 33.5584 8.51032 33.4212 5.0901 33.2658ZM38.1987 35.0779C37.1191 35.0779 36.3463 35.0557 35.5755 35.0839C34.8793 35.1101 34.6654 34.9931 35.073 34.2707C35.7974 32.9874 36.4996 31.6778 37.0646 30.3198C37.8819 28.3565 38.921 26.4335 38.6163 24.1674C38.5598 23.7477 38.6829 23.2998 38.7536 22.87C38.802 22.5855 38.8282 22.19 39.2298 22.2283C39.6031 22.2646 39.6374 22.6621 39.6394 22.9467C39.6414 23.4128 39.5647 23.8809 39.5183 24.347C39.4679 24.8374 39.6152 25.2288 40.1156 25.3741C40.5777 25.5093 40.8824 25.253 41.0942 24.8636C41.1972 24.6739 41.2012 24.345 41.5462 24.4762C41.8267 24.5831 42.1153 24.7244 42.1334 25.0896C42.1475 25.358 42.1213 25.6263 42.1415 25.8947C42.1697 26.27 42.3836 26.5202 42.7448 26.611C43.108 26.7018 43.4006 26.5687 43.6165 26.262C43.8042 25.9976 43.7638 25.5032 44.349 25.6546C44.9019 25.7999 44.9705 26.1611 44.9745 26.6332C44.9786 27.0207 45.2429 27.2325 45.598 27.3253C45.929 27.4141 46.2417 27.3072 46.385 27.0267C46.6372 26.5384 46.8895 26.3608 47.3455 26.7947C47.7975 27.2245 47.4403 27.507 47.18 27.8056C45.7009 29.4985 44.1149 31.1088 42.769 32.9026C41.4978 34.6016 40.1378 35.7417 38.1987 35.0779ZM42.3029 35.1525C43.4369 33.8328 44.3611 32.7715 45.2671 31.696C45.5859 31.3186 45.7675 31.2177 46.1711 31.6879C47.18 32.8643 48.4472 32.9611 49.6095 31.9684C50.5357 31.1774 51.5829 30.8687 52.7613 30.8787C55.0879 30.8969 57.4003 30.6669 59.632 30.0494C61.1131 29.6398 62.1664 30.1846 63.2056 31.0442C63.5164 31.3005 63.8957 31.6132 63.8533 32.0168C63.8029 32.497 63.246 32.4587 62.8908 32.5919C62.5155 32.7311 62.118 32.8138 61.7245 32.8986C57.2228 33.8631 52.6504 34.2909 48.078 34.7086C46.2498 34.87 44.4196 34.9891 42.3029 35.1525ZM26.5477 29.0607C25.22 29.1212 23.9528 28.7822 22.6896 28.4493C19.0414 27.4868 15.5788 26.0158 12.1666 24.4358C9.36386 23.1383 6.60548 21.74 3.83097 20.382C3.53636 20.2387 3.10051 20.0753 3.30432 19.6717C3.54646 19.1915 3.88747 19.6374 4.14575 19.7504C6.36537 20.7048 8.55875 21.7218 10.7905 22.644C14.703 24.2623 18.6903 25.6647 22.841 26.5505C25.1776 27.0489 26.7212 26.1853 27.0199 24.2784C27.1006 23.7679 26.7576 22.9689 27.2539 22.8094C27.7624 22.646 28.0873 23.4511 28.5211 23.8002C28.7027 23.9455 28.8823 24.113 29.0115 24.3047C29.5603 25.1239 30.0345 25.9754 29.7601 27.0227C29.3606 28.5461 28.5454 29.0607 26.5477 29.0607ZM4.4686 13.3014C4.76119 11.8768 5.05579 10.6439 5.25556 9.39491C5.40892 8.4324 5.84275 7.9905 6.85973 8.06718C8.8029 8.21448 10.7481 8.0248 12.6711 7.80688C14.927 7.55061 17.183 7.17529 19.1947 5.97065C19.4349 5.82738 19.8122 5.58121 20.016 6.10786C20.1633 6.49125 20.2077 6.82823 19.7819 7.05422C19.5458 7.17933 19.3057 7.30242 19.0595 7.40734C16.2305 8.62813 13.4056 9.86103 10.5685 11.0616C8.63139 11.8829 6.7205 12.7828 4.4686 13.3014ZM35.3858 20.4163C36.427 20.9591 36.7478 21.6714 36.3866 22.7106C36.1748 23.32 36.1687 23.9576 36.988 24.1473C37.4077 24.2441 37.6296 24.4459 37.448 24.8253C37.2644 25.2127 36.9234 24.9604 36.6611 24.8575C36.0315 24.6093 35.404 24.3067 35.0064 23.7518C32.9301 20.8582 29.9901 19.5204 26.5881 18.9655C25.1251 18.7274 24.4895 17.9909 24.3947 16.532C24.2978 15.0287 24.8245 14.3527 26.5215 13.7736C26.8544 14.8652 26.8181 15.8721 25.7426 16.5824C25.6901 16.6167 25.6538 16.6833 25.6155 16.7378C25.335 17.1454 25.2926 17.553 25.674 17.9162C26.0271 18.2532 26.4206 18.1926 26.7656 17.9081C27.1026 17.6317 27.3912 17.3008 27.716 17.0122C28.5454 16.2717 29.3505 16.9355 30.1556 17.0828C30.8437 17.21 30.6338 17.7669 30.6076 18.2169C30.5813 18.6648 30.7226 19.028 31.1887 19.1491C31.6427 19.2661 31.9575 19.0583 32.1714 18.6487C32.2622 18.4731 32.24 18.1765 32.6254 18.2633C33.3498 18.4267 33.8381 19.1208 33.6928 19.8775C33.6363 20.1721 33.5375 20.4627 33.5072 20.7613C33.4648 21.1689 33.6283 21.4999 34.0419 21.6209C34.4697 21.746 34.8491 21.6472 35.0629 21.2174C35.184 20.9793 35.2647 20.723 35.3858 20.4163ZM29.1709 10.3211C27.9541 10.2101 27.3831 9.71373 27.2378 8.57769C27.0865 7.3912 26.7495 6.23902 25.9524 5.25028C24.9355 3.98914 23.6582 3.29299 21.9349 3.2042C23.0306 2.05606 24.2514 1.51326 25.6316 1.24489C26.5316 1.06934 27.0723 1.35184 27.3831 2.24775C28.2911 4.85075 28.7633 7.54254 29.1709 10.3211ZM58.0238 29.0728C56.3854 29.6035 54.7509 29.6983 53.1064 29.7185C51.5325 29.7387 50.0352 29.9869 48.8346 31.1491C48.2636 31.7 47.6239 31.5789 47.1376 31.0704C46.6655 30.5781 46.6856 29.9848 47.182 29.4501C47.6139 28.984 48.1223 28.5562 48.423 28.0134C48.7115 27.4928 49.0102 27.4202 49.5288 27.5191C52.3578 28.0497 55.1908 28.5562 58.0238 29.0728ZM17.3444 19.8493C18.6378 18.5639 20.1128 17.5853 21.598 16.6228C22.0157 16.3524 22.4313 15.7975 22.8773 15.9064C23.5472 16.0719 23.0609 16.8306 23.2687 17.2927C23.4322 17.6559 23.5734 18.1523 23.1093 18.3722C21.2933 19.2338 19.3844 19.7787 17.3444 19.8493ZM24.2837 5.22203C23.3636 5.59735 22.5928 6.01504 21.7695 6.21683C20.9381 6.42063 21.1823 5.52471 20.924 5.14132C20.7242 4.84268 20.7747 4.53194 21.1984 4.48956C22.2316 4.38464 23.2687 4.3019 24.2837 5.22203ZM27.6575 11.7437C29.6067 12.3409 29.6572 12.4983 28.396 13.8583C28.2427 14.0238 28.0712 14.1691 27.827 14.4011C27.6272 13.477 27.6373 12.6497 27.6575 11.7437Z" fill="#252835"/>
<path d="M24.3483 39.1458C31.2049 39.1942 38.0614 39.1983 44.918 38.9985C50.0211 38.8512 54.8579 37.5275 59.7168 36.224C61.206 35.8244 62.6689 35.3361 64.15 34.9023C64.7553 34.7247 65.1791 34.5451 64.8885 33.7279C64.5798 32.8582 64.1338 33.3788 63.7323 33.51C61.099 34.3736 58.3608 34.7005 55.6347 35.0496C51.1007 35.6307 46.5525 36.1433 41.9841 36.2462C36.4391 36.3713 30.9002 36.0545 25.3673 35.6267C17.8973 35.0476 10.4253 34.4866 2.92699 34.4079C1.93019 34.3978 1.46608 34.6339 1.46407 35.6771C1.46205 36.4459 1.35511 37.2208 1.23202 37.9815C1.13113 38.6111 1.33493 38.7664 1.96247 38.7786C7.84444 38.8794 13.7244 39.0247 19.6064 39.1397C21.1884 39.172 22.7683 39.1458 24.3483 39.1458Z" fill="#FFF7DB"/>
<path d="M14.9734 26.9924C15.8189 29.1353 16.6301 31.1552 17.4069 33.1912C17.5926 33.6775 17.8004 33.9317 18.3856 33.9701C23.1477 34.2748 27.9057 34.6178 32.6637 34.9689C33.1702 35.0072 33.4567 34.8579 33.709 34.416C35.0549 32.0511 36.2636 29.6277 37.1413 27.0429C37.3229 26.5101 37.3774 26.2135 36.6974 26.0481C35.4483 25.7434 34.506 24.9867 33.7171 23.9556C32.0382 21.7582 29.6733 20.7089 27.032 20.1964C26.1764 20.0309 25.2866 19.9623 24.5823 19.3791C24.2776 19.1269 24.0496 19.2399 23.7651 19.3711C19.4268 21.3748 14.925 21.7017 10.29 20.6806C9.98535 20.614 9.67259 20.4647 9.25288 20.727C11.3534 21.7057 13.4459 22.4765 15.5445 23.2231C17.8206 24.0323 20.129 24.7324 22.4798 25.2914C22.6109 25.3216 22.736 25.3741 22.8672 25.3983C25.3067 25.8584 26.1502 25.0714 25.8455 22.6218C25.8072 22.3211 25.7285 22.0225 25.7325 21.7239C25.7385 21.2234 26.0291 21.0055 26.5235 21.06C29.0074 21.3284 31.5499 25.1804 30.8154 27.5594C30.2726 29.3149 29.0236 30.231 27.0158 30.2573C24.4229 30.2895 21.9814 29.5349 19.568 28.6975C18.0607 28.1728 16.5695 27.5877 14.9734 26.9924Z" fill="#FFF7DB"/>
<path d="M14.0957 19.9845C14.7858 20.1116 15.4093 19.7968 16.0489 19.2581C18.4683 17.2221 21.031 15.3838 23.8882 13.9915C24.7438 13.5738 25.4883 13.021 26.0554 12.236C26.4609 11.6751 26.5679 11.2897 25.68 11.2211C25.3471 11.1968 25.0121 11.1484 24.6873 11.0697C24.1969 10.9507 23.9387 10.6278 24.0052 10.1113C24.0698 9.61487 24.4209 9.47967 24.8669 9.44739C26.3459 9.34044 26.3459 9.33439 25.9504 7.92392C25.4197 6.01707 25.4056 5.98277 23.5936 6.74349C18.1777 9.01355 12.776 11.3159 7.36621 13.596C6.81131 13.8301 6.22008 13.9794 5.66114 14.2074C5.17283 14.4072 4.41413 14.2438 4.21437 14.7462C3.89757 15.5412 3.8229 16.4351 3.66955 17.2907C3.61708 17.5792 3.85317 17.668 4.07917 17.777C5.84073 18.6245 11.8377 19.9744 14.0957 19.9845Z" fill="#43ACE7"/>
<path d="M5.0901 33.2658C8.51033 33.4212 11.9305 33.5584 15.3488 33.7481C16.1942 33.7945 16.4364 33.6311 16.0752 32.7796C15.2761 30.8949 14.5961 28.9638 13.682 27.1276C13.3834 26.5283 12.9637 26.1126 12.3482 25.8301C9.47485 24.5145 6.48442 23.5177 3.50005 22.4987C2.89672 22.2929 2.68485 22.4261 2.58194 23.0738C2.13197 25.8887 1.69611 28.7055 1.47617 31.5507C1.44994 31.8836 1.46003 32.2206 1.46204 32.5576C1.46406 33.0903 1.69409 33.3324 2.26716 33.3082C3.20545 33.2699 4.14777 33.2981 5.08808 33.2981C5.0901 33.286 5.0901 33.2759 5.0901 33.2658Z" fill="#43ACE7"/>
<path d="M38.1987 35.0779C40.1378 35.7417 41.4978 34.6016 42.769 32.9067C44.1129 31.1128 45.701 29.5026 47.18 27.8096C47.4403 27.511 47.7975 27.2305 47.3455 26.7987C46.8895 26.3649 46.6372 26.5404 46.385 27.0308C46.2397 27.3112 45.927 27.4182 45.598 27.3294C45.2429 27.2346 44.9786 27.0227 44.9745 26.6373C44.9705 26.1651 44.9019 25.8019 44.349 25.6586C43.7638 25.5053 43.8042 25.9996 43.6165 26.266C43.4006 26.5727 43.108 26.7059 42.7448 26.6151C42.3836 26.5243 42.1698 26.2741 42.1415 25.8987C42.1213 25.6324 42.1455 25.362 42.1334 25.0936C42.1153 24.7284 41.8267 24.5872 41.5462 24.4802C41.1992 24.347 41.1951 24.6759 41.0942 24.8676C40.8844 25.2571 40.5777 25.5133 40.1156 25.3781C39.6172 25.2308 39.4679 24.8394 39.5183 24.3511C39.5668 23.885 39.6434 23.4168 39.6394 22.9507C39.6374 22.6662 39.6031 22.2687 39.2298 22.2324C38.8262 22.192 38.8 22.5875 38.7536 22.874C38.6809 23.3038 38.5599 23.7518 38.6164 24.1715C38.9231 26.4355 37.8819 28.3605 37.0646 30.3238C36.4996 31.6818 35.7974 32.9914 35.073 34.2748C34.6654 34.9971 34.8793 35.1162 35.5755 35.0879C36.3463 35.0557 37.1191 35.0779 38.1987 35.0779Z" fill="#43ACE7"/>
<path d="M42.3029 35.1525C44.4196 34.9911 46.2498 34.872 48.0759 34.7066C52.6504 34.2909 57.2228 33.8611 61.7225 32.8966C62.116 32.8118 62.5135 32.7311 62.8888 32.5899C63.244 32.4567 63.8009 32.495 63.8513 32.0148C63.8937 31.6112 63.5144 31.2985 63.2036 31.0422C62.1644 30.1846 61.1111 29.6378 59.63 30.0474C57.3983 30.6649 55.0859 30.8949 52.7593 30.8767C51.5789 30.8666 50.5337 31.1754 49.6075 31.9663C48.4452 32.9611 47.176 32.8623 46.1691 31.6859C45.7675 31.2157 45.5839 31.3166 45.2651 31.6939C44.3611 32.7715 43.4369 33.8328 42.3029 35.1525Z" fill="#43ACE7"/>
<path d="M26.5477 29.0607C28.5454 29.0607 29.3606 28.5461 29.7601 27.0207C30.0345 25.9734 29.5603 25.1219 29.0115 24.3026C28.8823 24.1109 28.7027 23.9435 28.5211 23.7982C28.0873 23.4511 27.7624 22.646 27.2539 22.8074C26.7576 22.9668 27.1006 23.7659 27.0199 24.2764C26.7212 26.1833 25.1776 27.0469 22.8409 26.5485C18.6903 25.6627 14.703 24.2582 10.7905 22.642C8.55875 21.7198 6.36537 20.7028 4.14575 19.7484C3.88545 19.6374 3.54444 19.1915 3.30432 19.6697C3.10052 20.0733 3.53637 20.2367 3.83097 20.38C6.60548 21.738 9.36386 23.1363 12.1666 24.4338C15.5788 26.0138 19.0414 27.4848 22.6896 28.4473C23.9528 28.7802 25.22 29.1212 26.5477 29.0607Z" fill="#2D323E"/>
<path d="M4.46861 13.3014C6.71849 12.7808 8.62938 11.8829 10.5665 11.0637C13.4036 9.86305 16.2285 8.63015 19.0575 7.40936C19.3037 7.30242 19.5438 7.18135 19.7799 7.05624C20.2077 6.83025 20.1633 6.49327 20.014 6.10988C19.8102 5.58323 19.4328 5.8294 19.1927 5.97267C17.183 7.17731 14.925 7.55263 12.6691 7.80889C10.7461 8.02682 8.80089 8.21851 6.85772 8.06919C5.84074 7.99252 5.40691 8.43442 5.25355 9.39693C5.05581 10.6439 4.7612 11.8768 4.46861 13.3014Z" fill="#2D323E"/>
<path d="M35.3858 20.4163C35.2647 20.723 35.184 20.9793 35.067 21.2174C34.8511 21.6472 34.4737 21.746 34.046 21.6209C33.6323 21.4999 33.4689 21.1689 33.5112 20.7613C33.5415 20.4627 33.6404 20.1741 33.6969 19.8775C33.8422 19.1208 33.3538 18.4247 32.6294 18.2633C32.244 18.1765 32.2662 18.4711 32.1754 18.6487C31.9615 19.0583 31.6468 19.2661 31.1927 19.1491C30.7266 19.028 30.5854 18.6628 30.6116 18.2169C30.6378 17.7669 30.8477 17.21 30.1596 17.0828C29.3545 16.9355 28.5494 16.2717 27.7201 17.0122C27.3952 17.3028 27.1046 17.6337 26.7697 17.9081C26.4246 18.1906 26.0311 18.2532 25.678 17.9162C25.2966 17.553 25.339 17.1454 25.6195 16.7378C25.6578 16.6833 25.6921 16.6167 25.7466 16.5824C26.8221 15.8742 26.8584 14.8652 26.5255 13.7736C24.8285 14.3527 24.3019 15.0287 24.3987 16.532C24.4936 17.9929 25.1292 18.7274 26.5921 18.9655C29.9942 19.5204 32.9341 20.8582 35.0105 23.7518C35.408 24.3067 36.0355 24.6093 36.6651 24.8575C36.9254 24.9604 37.2664 25.2127 37.4521 24.8252C37.6337 24.4439 37.4097 24.2441 36.992 24.1473C36.1728 23.9576 36.1788 23.3199 36.3907 22.7106C36.7478 21.6714 36.427 20.9611 35.3858 20.4163Z" fill="#43ACE7"/>
<path d="M29.1709 10.3211C28.7633 7.54051 28.2891 4.85075 27.3831 2.24774C27.0703 1.35183 26.5295 1.06933 25.6316 1.24488C24.2514 1.51325 23.0286 2.05605 21.9349 3.2042C23.6602 3.29298 24.9375 3.98913 25.9524 5.25028C26.7495 6.23901 27.0885 7.39119 27.2378 8.57768C27.3831 9.71372 27.9541 10.2101 29.1709 10.3211Z" fill="#FFF7DB"/>
<path d="M58.0238 29.0728C55.1908 28.5583 52.3578 28.0518 49.5268 27.5191C49.0082 27.4222 48.7095 27.4949 48.421 28.0134C48.1203 28.5562 47.6118 28.984 47.18 29.4501C46.6836 29.9849 46.6635 30.5761 47.1356 31.0705C47.6219 31.579 48.2616 31.702 48.8326 31.1492C50.0332 29.9869 51.5305 29.7387 53.1044 29.7185C54.7509 29.6963 56.3854 29.6035 58.0238 29.0728Z" fill="#FFF7DB"/>
<path d="M17.3444 19.8493C19.3824 19.7807 21.2933 19.2339 23.1073 18.3722C23.5694 18.1523 23.4281 17.6559 23.2667 17.2927C23.0589 16.8306 23.5472 16.0719 22.8753 15.9065C22.4293 15.7955 22.0157 16.3504 21.5959 16.6228C20.1128 17.5853 18.6378 18.5619 17.3444 19.8493Z" fill="#2D323E"/>
<path d="M24.2837 5.22204C23.2687 4.30191 22.2316 4.38464 21.2005 4.48755C20.7747 4.52992 20.7263 4.84269 20.926 5.13931C21.1843 5.5227 20.9402 6.42063 21.7715 6.21481C22.5928 6.01505 23.3636 5.59736 24.2837 5.22204Z" fill="#43ACE7"/>
<path d="M27.6575 11.7437C27.6373 12.6497 27.6272 13.479 27.829 14.4011C28.0732 14.1691 28.2447 14.0238 28.3981 13.8584C29.6572 12.4983 29.6067 12.3389 27.6575 11.7437Z" fill="#FFF7DB"/>
</svg>
