<svg width="50" height="51" viewBox="0 0 50 51" fill="none" xmlns="http://www.w3.org/2000/svg">
<path d="M27.8183 0.818054L0.989702 27.8679C0.0759426 28.7817 0.0759426 30.2639 0.989702 31.1786L19.937 50.1259C20.8508 51.0396 22.333 51.0396 23.2477 50.1259L49.3708 23.2963V0.818054H27.8183ZM40.1128 13.7792C38.0678 13.7792 36.4097 12.1211 36.4097 10.076C36.4097 8.03092 38.0678 6.37282 40.1128 6.37282C42.1579 6.37282 43.816 8.03092 43.816 10.076C43.816 12.1211 42.1579 13.7792 40.1128 13.7792Z" fill="white"/>
<path d="M40.1128 2.66968C36.0227 2.66968 32.7065 5.98587 32.7065 10.076C32.7065 14.1662 36.0227 17.4824 40.1128 17.4824C44.203 17.4824 47.5192 14.1662 47.5192 10.076C47.5192 5.98587 44.203 2.66968 40.1128 2.66968ZM40.1128 13.7792C38.0678 13.7792 36.4097 12.1211 36.4097 10.076C36.4097 8.03095 38.0678 6.37286 40.1128 6.37286C42.1579 6.37286 43.816 8.03095 43.816 10.076C43.816 12.1211 42.1579 13.7792 40.1128 13.7792Z" fill="white"/>
<path d="M20.7175 37.2934C18.8927 37.2934 17.142 36.574 15.8404 35.2724C13.1509 32.5829 13.1509 28.2058 15.8404 25.5164C16.2024 25.1544 16.7875 25.1544 17.1495 25.5164C17.5114 25.8783 17.5114 26.4634 17.1495 26.8254C15.1821 28.7937 15.1821 31.9951 17.1495 33.9633C18.2021 35.0159 19.6584 35.5492 21.1415 35.4242C21.8877 35.3622 22.5663 34.9974 23.0514 34.3994C23.5634 33.767 23.7994 32.9422 23.6985 32.1339L22.4709 22.3159C22.308 21.0096 22.6885 19.6746 23.5171 18.6534C24.3234 17.6601 25.4575 17.0546 26.7111 16.9509C28.7413 16.7833 30.7271 17.5092 32.1658 18.9469C34.8553 21.6364 34.8553 26.0135 32.1658 28.7029C31.8039 29.0649 31.2187 29.0649 30.8568 28.7029C30.4948 28.341 30.4948 27.7559 30.8568 27.3939C32.8241 25.4256 32.8241 22.2242 30.8568 20.256C29.8041 19.2043 28.3543 18.6692 26.8647 18.7951C26.1185 18.8571 25.4399 19.2219 24.9548 19.8199C24.4429 20.4513 24.2068 21.2771 24.3077 22.0854L25.5353 31.9034C25.6982 33.2088 25.3168 34.5447 24.4891 35.5649C23.6828 36.5592 22.5487 37.1647 21.2952 37.2684C21.1026 37.286 20.91 37.2934 20.7175 37.2934Z" fill="#32CA6F"/>
<path d="M15.1469 36.8944C14.9099 36.8944 14.6729 36.8037 14.4924 36.6231C14.1304 36.2611 14.1304 35.676 14.4924 35.3141L31.914 17.8925C32.276 17.5305 32.8611 17.5305 33.223 17.8925C33.585 18.2544 33.585 18.8395 33.223 19.2015L15.8014 36.6231C15.62 36.8037 15.3839 36.8944 15.1469 36.8944Z" fill="#32CA6F"/>
</svg>
